Coordinates
version=1
nRows=14
nColumns=24
inDegrees=yes

Units are S.I. units (second, meters, Newtons, ...)
Angles are in degrees.

endheader
time	pelvis_tilt	pelvis_list	pelvis_rotation	pelvis_tx	pelvis_ty	pelvis_tz	hip_flexion_r	hip_adduction_r	hip_rotation_r	knee_angle_r	ankle_angle_r	subtalar_angle_r	mtp_angle_r	hip_flexion_l	hip_adduction_l	hip_rotation_l	knee_angle_l	ankle_angle_l	subtalar_angle_l	mtp_angle_l	lumbar_extension	lumbar_bending	lumbar_rotation
      1.43000000	     25.07046674	     -0.87677846	      3.98642509	     -0.54265315	      0.83653470	     -0.03368257	    -43.43844324	      7.59549884	    -18.76741692	     -4.40539204	     32.29910637	     20.05660809	     32.11812751	     -5.25874979	      1.05553653	    -14.99406579	     -1.22991820	     16.02634720	     15.50374495	     49.88873113	    -38.79027137	      1.84745445	     -9.41678089
      1.43500000	     25.11676429	     -0.97028017	      3.85801399	     -0.53652332	      0.83611826	     -0.03348782	    -43.60658624	      7.46924536	    -18.55621174	     -5.25042819	     32.36081639	     20.16551431	     32.21648787	     -5.29175215	      1.00576435	    -14.96382123	     -1.97325778	     15.70090347	     15.43338414	     49.88750774	    -38.82740556	      1.80214185	     -9.33863301
      1.44000000	     25.15134914	     -1.06068736	      3.73281714	     -0.53037098	      0.83573774	     -0.03330118	    -43.70851592	      7.32312544	    -18.35782594	     -6.22553069	     32.44972052	     20.34582037	     32.44962468	     -5.29754914	      0.94625633	    -14.91213760	     -2.81263357	     15.36729110	     15.27088606	     49.91611852	    -38.85209299	      1.75390078	     -9.30544788
      1.44500000	     25.18855602	     -1.13604514	      3.61298480	     -0.52420019	      0.83543921	     -0.03311407	    -43.76619892	      7.15703717	    -18.18393364	     -7.30905292	     32.49803668	     20.49186583	     32.77807267	     -5.29959914	      0.89066757	    -14.82385987	     -3.71504814	     14.96205739	     14.96293545	     49.95831319	    -38.87712107	      1.68945564	     -9.26346766
      1.45000000	     25.23357199	     -1.18221389	      3.54173362	     -0.51801310	      0.83522352	     -0.03301858	    -43.80976878	      6.99414512	    -18.08815068	     -8.41034441	     32.23476826	     20.51290498	     35.24889765	     -5.32200033	      0.86038189	    -14.56048768	     -4.60902864	     14.38104372	     14.29774663	     50.78955732	    -38.91066737	      1.62778322	     -9.26203719
      1.45500000	     25.27135196	     -1.23626248	      3.46092718	     -0.51188445	      0.83506298	     -0.03290559	    -43.75023533	      6.80583983	    -17.98440210	     -9.75443580	     32.25228806	     20.65977800	     35.56633749	     -5.29908339	      0.80303983	    -14.33045110	     -5.61747405	     13.90505369	     13.67737051	     50.84357044	    -38.94626847	      1.56487830	     -9.25460489
      1.46000000	     25.28901998	     -1.24694723	      3.37436789	     -0.50568028	      0.83498122	     -0.03284283	    -43.61435860	      6.55760827	    -17.96044530	    -11.23206561	     32.12341751	     20.75568394	     36.39251911	     -5.28493582	      0.80033405	    -14.02109927	     -6.58529575	     13.38208161	     12.77735324	     51.05112334	    -38.95329505	      1.46166900	     -9.27700747
      1.46500000	     25.38171802	     -1.23872723	      3.25611196	     -0.49950413	      0.83508639	     -0.03268495	    -43.52438750	      6.27675814	    -17.85944141	    -12.75877640	     31.90401096	     20.71351563	     38.37109438	     -5.36696859	      0.79925022	    -13.77444119	     -7.54343075	     12.74390892	     11.86597575	     51.70511583	    -39.04698460	      1.31637950	     -9.27594631
      1.47000000	     25.34994220	     -1.24828217	      3.19845203	     -0.49330808	      0.83509676	     -0.03261449	    -43.20621423	      6.02288557	    -17.85185730	    -14.51255563	     31.67700159	     20.74827534	     39.03001625	     -5.23485521	      0.75259223	    -13.48773367	     -8.70229466	     12.39605914	     11.11856478	     51.83871764	    -39.00485050	      1.21842048	     -9.31722221
      1.47500000	     25.41117826	     -1.20825223	      3.10057533	     -0.48714122	      0.83532614	     -0.03254387	    -42.93425203	      5.68774965	    -17.85984970	    -16.36374683	     31.33200181	     20.66305123	     41.07744726	     -5.28665602	      0.77672052	    -13.12854633	     -9.68779118	     11.87355612	     10.09339182	     52.19740413	    -39.06793788	      1.05837643	     -9.33141928
      1.48000000	     25.39074838	     -1.17194739	      3.04234955	     -0.48094927	      0.83551267	     -0.03249764	    -42.51085336	      5.36867144	    -17.90406293	    -18.34313034	     30.89428040	     20.53582173	     42.80496340	     -5.18811695	      0.77144866	    -12.78347377	    -10.84114078	     11.56982040	      9.23689140	     52.38517482	    -39.04262770	      0.91748414	     -9.39275270
      1.48500000	     25.32610913	     -1.12395785	      3.02273754	     -0.47473383	      0.83568800	     -0.03249299	    -41.98068304	      5.04785398	    -18.00279899	    -20.44714534	     30.41112857	     20.46572939	     43.61498077	     -5.01476394	      0.76483881	    -12.41235892	    -12.08355187	     11.46293379	      8.51000824	     52.37041045	    -38.96780992	      0.78438159	     -9.50279828
      1.49000000	     25.36366753	     -0.99824428	      2.92530340	     -0.46849587	      0.83609759	     -0.03245962	    -41.50352076	      4.59084234	    -18.13759889	    -22.64462234	     29.69425945	     20.12578978	     46.57035959	     -5.08329031	      0.87585893	    -12.02324644	    -13.05758247	     11.23100666	      7.63987225	     52.24164564	    -39.00343332	      0.54386518	     -9.56217630
      1.49500000	     25.29373360	     -0.88226576	      2.90333925	     -0.46225529	      0.83640430	     -0.03249394	    -40.85449504	      4.17660401	    -18.31285945	    -24.93928047	     28.92991139	     19.79325782	     48.26038244	     -4.94998518	      0.95271506	    -11.62750320	    -14.24444635	     11.21108200	      6.92998802	     52.02819713	    -38.92373374	      0.34990273	     -9.71692800
